{"title":"Lemon Jelly - '64 - '95 [FLAC]","uid":7473306,"size":371344889,"categoryP":"audio","categoryS":"flac","magnet":"?xt=urn:btih:3a2055dddbc4b9eafcff2f368b56e6f80e5076b5&amp;dn=Lemon+Jelly+-+%2764+-+%2795+%5BFLAC%5D&amp;tr=udp%3A%2F%2Ftracker.openbittorrent.com%3A80&amp;tr=udp%3A%2F%2Fopen.demonii.com%3A1337&amp;tr=udp%3A%2F%2Ftracker.coppersurfer.tk%3A6969&amp;tr=udp%3A%2F%2Fexodus.desync.com%3A6969","seeders":1,"leechers":2,"uploader":"elegant_pie","files":2,"time":1343217198,"description":"LEMON JELLY - '64 - '95\nRipped with EAC to Flac format.\n\nThere is a hidden track if you rewind from the beginning.\n\nThis is an audio CD archive. Convert it to something more reasonable to put on MP3 players etc.\n\nREM GENRE Electronic\nREM DATE 2005\nREM DISCID 940C760A\nREM COMMENT &quot;ExactAudioCopy v0.99pb5&quot;\nPERFORMER &quot;Lemon Jelly&quot;\nTITLE &quot;'64-'95&quot;\nFILE &quot;Lemon Jelly - '64-'95.flac&quot; WAVE\n  TRACK 01 AUDIO\n    TITLE &quot;It Was...&quot;\n    PERFORMER &quot;Lemon Jelly&quot;\n    INDEX 00 00:00:00\n    INDEX 01 01:23:18\n  TRACK 02 AUDIO\n    TITLE &quot;'88 AKA Come Down On Me&quot;\n    PERFORMER &quot;Lemon Jelly&quot;\n    INDEX 01 01:47:53\n  TRACK 03 AUDIO\n    TITLE &quot;'68 AKA Only Time&quot;\n    PERFORMER &quot;Lemon Jelly&quot;\n    INDEX 01 07:38:38\n  TRACK 04 AUDIO\n    TITLE &quot;'93 AKA Don't Stop Now&quot;\n    PERFORMER &quot;Lemon Jelly&quot;\n    INDEX 01 14:15:14\n  TRACK 05 AUDIO\n    TITLE &quot;'95 AKA Make Things Right [ft Terri Walker]&quot;\n    PERFORMER &quot;Lemon Jelly&quot;\n    INDEX 01 21:11:38\n  TRACK 06 AUDIO\n    TITLE &quot;'79 AKA the Shouty Track&quot;\n    PERFORMER &quot;Lemon Jelly&quot;\n    INDEX 01 27:10:67\n  TRACK 07 AUDIO\n    TITLE &quot;'75 AKA Stay With You&quot;\n    PERFORMER &quot;Lemon Jelly&quot;\n    INDEX 01 30:52:57\n  TRACK 08 AUDIO\n    TITLE &quot;'76 AKA the Slow Train&quot;\n    PERFORMER &quot;Lemon Jelly&quot;\n    INDEX 00 37:04:10\n    INDEX 01 37:04:20\n  TRACK 09 AUDIO\n    TITLE &quot;'90 AKA a Man Like Me&quot;\n    PERFORMER &quot;Lemon Jelly&quot;\n    INDEX 01 42:44:74\n  TRACK 10 AUDIO\n    TITLE &quot;'64 AKA Go [ft W Shatner]&quot;\n    PERFORMER &quot;Lemon Jelly&quot;\n    INDEX 01 48:01:66\n","torrent":{"xt":"urn:btih:3a2055dddbc4b9eafcff2f368b56e6f80e5076b5","amp;dn":"Lemon+Jelly+-+%2764+-+%2795+%5BFLAC%5D","amp;tr":["udp%3A%2F%2Ftracker.openbittorrent.com%3A80","udp%3A%2F%2Fopen.demonii.com%3A1337","udp%3A%2F%2Ftracker.coppersurfer.tk%3A6969","udp%3A%2F%2Fexodus.desync.com%3A6969"],"infoHash":"3a2055dddbc4b9eafcff2f368b56e6f80e5076b5","infoHashBuffer":{"type":"Buffer","data":[58,32,85,221,219,196,185,234,252,255,47,54,139,86,230,248,14,80,118,181]},"announce":[],"urlList":[]}}